G04 #@! TF.GenerationSoftware,KiCad,Pcbnew,(5.1.9)-1*
G04 #@! TF.CreationDate,2021-02-25T15:37:12+04:00*
G04 #@! TF.ProjectId,saxli,7361786c-692e-46b6-9963-61645f706362,rev?*
G04 #@! TF.SameCoordinates,Original*
G04 #@! TF.FileFunction,Copper,L3,Inr*
G04 #@! TF.FilePolarity,Positive*
%FSLAX46Y46*%
G04 Gerber Fmt 4.6, Leading zero omitted, Abs format (unit mm)*
G04 Created by KiCad (PCBNEW (5.1.9)-1) date 2021-02-25 15:37:12*
%MOMM*%
%LPD*%
G01*
G04 APERTURE LIST*
G04 #@! TA.AperFunction,ComponentPad*
%ADD10C,1.303000*%
G04 #@! TD*
G04 #@! TA.AperFunction,ComponentPad*
%ADD11C,2.250000*%
G04 #@! TD*
G04 #@! TA.AperFunction,ComponentPad*
%ADD12C,2.050000*%
G04 #@! TD*
G04 #@! TA.AperFunction,ComponentPad*
%ADD13O,1.700000X1.700000*%
G04 #@! TD*
G04 #@! TA.AperFunction,ComponentPad*
%ADD14R,1.700000X1.700000*%
G04 #@! TD*
G04 #@! TA.AperFunction,ComponentPad*
%ADD15R,2.200000X2.200000*%
G04 #@! TD*
G04 #@! TA.AperFunction,ComponentPad*
%ADD16C,2.200000*%
G04 #@! TD*
G04 #@! TA.AperFunction,ComponentPad*
%ADD17C,0.600000*%
G04 #@! TD*
G04 #@! TA.AperFunction,ComponentPad*
%ADD18C,2.600000*%
G04 #@! TD*
G04 #@! TA.AperFunction,ComponentPad*
%ADD19C,1.890000*%
G04 #@! TD*
G04 #@! TA.AperFunction,ComponentPad*
%ADD20C,1.900000*%
G04 #@! TD*
G04 #@! TA.AperFunction,ComponentPad*
%ADD21R,1.900000X1.900000*%
G04 #@! TD*
G04 #@! TA.AperFunction,ComponentPad*
%ADD22R,2.600000X2.600000*%
G04 #@! TD*
G04 #@! TA.AperFunction,ComponentPad*
%ADD23C,6.400000*%
G04 #@! TD*
G04 #@! TA.AperFunction,ViaPad*
%ADD24C,0.500000*%
G04 #@! TD*
G04 #@! TA.AperFunction,ViaPad*
%ADD25C,0.600000*%
G04 #@! TD*
G04 #@! TA.AperFunction,ViaPad*
%ADD26C,0.800000*%
G04 #@! TD*
G04 #@! TA.AperFunction,ViaPad*
%ADD27C,1.000000*%
G04 #@! TD*
G04 #@! TA.AperFunction,Conductor*
%ADD28C,0.500000*%
G04 #@! TD*
G04 #@! TA.AperFunction,Conductor*
%ADD29C,0.250000*%
G04 #@! TD*
G04 #@! TA.AperFunction,Conductor*
%ADD30C,1.000000*%
G04 #@! TD*
G04 APERTURE END LIST*
D10*
X116459000Y-31877000D03*
X113919000Y-31877000D03*
X111379000Y-31877000D03*
X108839000Y-31877000D03*
D11*
X164211000Y-31750000D03*
X159131000Y-31750000D03*
X159131000Y-26670000D03*
X164211000Y-26670000D03*
D12*
X161671000Y-29210000D03*
D11*
X183515000Y-58928000D03*
X183515000Y-53848000D03*
X188595000Y-53848000D03*
X188595000Y-58928000D03*
D12*
X186055000Y-56388000D03*
D13*
X194437000Y-44069000D03*
X194437000Y-46609000D03*
X194437000Y-49149000D03*
X194437000Y-51689000D03*
X194437000Y-54229000D03*
D14*
X194437000Y-56769000D03*
D15*
X141605000Y-114935000D03*
D16*
X144145000Y-114935000D03*
X146685000Y-114935000D03*
X149225000Y-114935000D03*
X151765000Y-114935000D03*
X154305000Y-114935000D03*
X156845000Y-114935000D03*
X159385000Y-114935000D03*
D15*
X91821000Y-114935000D03*
D16*
X94361000Y-114935000D03*
X96901000Y-114935000D03*
X99441000Y-114935000D03*
X101981000Y-114935000D03*
X104521000Y-114935000D03*
X107061000Y-114935000D03*
X109601000Y-114935000D03*
D15*
X116586000Y-114935000D03*
D16*
X119126000Y-114935000D03*
X121666000Y-114935000D03*
X124206000Y-114935000D03*
X126746000Y-114935000D03*
X129286000Y-114935000D03*
X131826000Y-114935000D03*
X134366000Y-114935000D03*
D17*
X64170000Y-80750000D03*
X64170000Y-81850000D03*
X65370000Y-81850000D03*
X65370000Y-80750000D03*
X64170000Y-84350000D03*
X64170000Y-83150000D03*
X65370000Y-83150000D03*
X65370000Y-84350000D03*
X64170000Y-52429000D03*
X64170000Y-53529000D03*
X65370000Y-53529000D03*
X65370000Y-52429000D03*
X64170000Y-56029000D03*
X64170000Y-54829000D03*
X65370000Y-54829000D03*
X65370000Y-56029000D03*
D18*
X186210000Y-106287000D03*
X170660000Y-106287000D03*
D19*
X172110000Y-114237000D03*
X174650000Y-112717000D03*
X182220000Y-114237000D03*
X184760000Y-112717000D03*
D20*
X182880000Y-100457000D03*
X181610000Y-102997000D03*
X180340000Y-100457000D03*
X179070000Y-102997000D03*
X177800000Y-100457000D03*
X176530000Y-102997000D03*
X175260000Y-100457000D03*
D21*
X173990000Y-102997000D03*
D13*
X117348000Y-55880000D03*
X117348000Y-58420000D03*
X114808000Y-55880000D03*
X114808000Y-58420000D03*
X112268000Y-55880000D03*
X112268000Y-58420000D03*
X109728000Y-55880000D03*
D14*
X109728000Y-58420000D03*
D13*
X82550000Y-75819000D03*
X82550000Y-73279000D03*
X82550000Y-70739000D03*
X82550000Y-68199000D03*
D14*
X82550000Y-65659000D03*
D18*
X45720000Y-82550000D03*
D22*
X45720000Y-87630000D03*
D23*
X193040000Y-25400000D03*
X193040000Y-118364000D03*
X43180000Y-118110000D03*
X43180000Y-25400000D03*
D24*
X74549000Y-101219000D03*
X74549000Y-101854000D03*
X75819000Y-101219000D03*
X75184000Y-101219000D03*
X75819000Y-101854000D03*
X75184000Y-101854000D03*
X75946000Y-104140000D03*
X75184000Y-104140000D03*
X75946000Y-104902000D03*
X75184000Y-104902000D03*
X75184000Y-105664000D03*
X75946000Y-105664000D03*
X71755000Y-101854000D03*
X71755000Y-101092000D03*
X70993000Y-101092000D03*
X70993000Y-101854000D03*
X71755000Y-104013000D03*
X71755000Y-104775000D03*
X71755000Y-105537000D03*
X70993000Y-104013000D03*
X70993000Y-104775000D03*
X70993000Y-105537000D03*
X122811500Y-85854500D03*
X105029000Y-70993000D03*
X111392000Y-68072000D03*
X123812000Y-67704000D03*
D25*
X130175000Y-75311000D03*
D24*
X148971000Y-102997000D03*
X152146000Y-97091500D03*
X161859000Y-97221000D03*
X106172000Y-100965000D03*
X108902500Y-98615500D03*
D26*
X88900000Y-104140000D03*
D24*
X168402000Y-88011000D03*
X101092000Y-80772000D03*
X141841000Y-102761000D03*
X133096000Y-65151000D03*
D27*
X85344000Y-45593000D03*
D24*
X123317000Y-73533000D03*
X90297000Y-80518000D03*
X128458000Y-91633000D03*
D26*
X173990000Y-59817000D03*
X186943000Y-47245000D03*
X191960000Y-36132000D03*
X142748000Y-29591000D03*
X153685000Y-42657000D03*
X121729500Y-79438500D03*
D25*
X144526000Y-106299000D03*
X129690500Y-103020500D03*
D26*
X177672000Y-41657000D03*
X150178000Y-59626000D03*
X113474000Y-93790000D03*
D25*
X93793000Y-47685000D03*
X90493000Y-47683000D03*
X87343000Y-47719000D03*
X106680000Y-98806000D03*
D26*
X186182000Y-84201000D03*
X194577000Y-91173000D03*
X172212000Y-90678000D03*
X172212000Y-84328000D03*
X177586000Y-72811000D03*
X187642500Y-79946500D03*
D24*
X62103000Y-101854000D03*
X62738000Y-101854000D03*
X63373000Y-101854000D03*
X64008000Y-101854000D03*
X64643000Y-101854000D03*
X65278000Y-101854000D03*
X65913000Y-101854000D03*
X66548000Y-101854000D03*
X67183000Y-101854000D03*
X67818000Y-101854000D03*
X62035000Y-102811000D03*
X62670000Y-102811000D03*
X63305000Y-102811000D03*
X63940000Y-102811000D03*
X64575000Y-102811000D03*
X65210000Y-102811000D03*
X65845000Y-102811000D03*
X66480000Y-102811000D03*
X67115000Y-102811000D03*
X67750000Y-102811000D03*
X112395000Y-66167000D03*
X143383000Y-45212000D03*
D26*
X63627000Y-78105000D03*
X62230000Y-78105000D03*
X60706000Y-78105000D03*
X59182000Y-78105000D03*
X57785000Y-78105000D03*
X56388000Y-78105000D03*
X152019000Y-72136000D03*
X66802000Y-65151000D03*
X56769000Y-65024000D03*
X146939000Y-51181000D03*
X177233010Y-56700990D03*
X196437250Y-82454750D03*
X196512000Y-76370000D03*
X122428000Y-59563000D03*
D24*
X138557000Y-74930000D03*
D26*
X145542000Y-35433000D03*
X148717000Y-35433000D03*
D25*
X191262000Y-40513000D03*
D26*
X187960000Y-28956000D03*
D27*
X81280000Y-80391000D03*
X82922000Y-96511000D03*
X81670000Y-96511000D03*
D26*
X105313000Y-108488000D03*
X111155000Y-108428000D03*
X97693000Y-108234000D03*
X128651000Y-108966000D03*
D24*
X156702000Y-98314000D03*
X148336000Y-98298000D03*
X143256000Y-93599000D03*
X129032000Y-93599000D03*
X158305500Y-103378000D03*
X123634500Y-87185500D03*
X170958000Y-83042000D03*
D26*
X98933000Y-76200000D03*
X125984000Y-79121000D03*
X122555000Y-62611000D03*
D24*
X113157000Y-80899000D03*
X109347000Y-76454000D03*
X105725999Y-81599001D03*
X89784499Y-78109501D03*
D27*
X85217000Y-92964000D03*
X86487000Y-92964000D03*
D26*
X86673999Y-50232001D03*
D27*
X85471000Y-64008000D03*
D26*
X169672000Y-81661000D03*
X186690000Y-78740000D03*
D24*
X127254000Y-88646000D03*
D26*
X128143000Y-75057000D03*
D24*
X106351000Y-72898000D03*
X177800000Y-94361000D03*
X173101000Y-89281000D03*
X173228000Y-76708000D03*
X106426000Y-79502000D03*
D26*
X101346000Y-75946000D03*
D24*
X94893000Y-49252000D03*
X172974000Y-77724000D03*
X107442000Y-80010000D03*
D26*
X136602000Y-56311000D03*
D24*
X134366000Y-53975000D03*
D26*
X99187000Y-54991000D03*
X184785000Y-72771000D03*
X186753500Y-74104500D03*
X183515000Y-85217000D03*
X185674000Y-94742000D03*
X183515000Y-87122000D03*
X187325000Y-89916000D03*
X185928000Y-89535000D03*
X173984999Y-92715001D03*
D24*
X186182000Y-85471000D03*
X101917500Y-80200500D03*
X174692001Y-80577999D03*
X106553000Y-81153000D03*
X102489000Y-79629000D03*
X105410000Y-65151000D03*
D27*
X64275000Y-96761000D03*
D24*
X131191000Y-49022000D03*
D25*
X170497500Y-94678500D03*
X135128000Y-51181000D03*
D26*
X110236000Y-100076000D03*
X102713000Y-100233000D03*
X95631000Y-100203000D03*
X120777000Y-108966000D03*
D27*
X93345000Y-53975000D03*
X69482000Y-96761000D03*
D26*
X136144000Y-51181000D03*
D24*
X173228000Y-78486000D03*
X113220500Y-83502500D03*
X175133000Y-77470000D03*
X111633000Y-76454000D03*
X175387000Y-76708000D03*
X116776500Y-72580500D03*
X94869000Y-75692000D03*
X91567000Y-43561000D03*
X99060000Y-81661000D03*
X95993000Y-43580000D03*
D25*
X117348000Y-77851000D03*
X89721999Y-74235001D03*
D24*
X88900000Y-49911000D03*
D25*
X114300000Y-89281000D03*
X149606000Y-89281000D03*
D24*
X155067000Y-89281000D03*
D25*
X114935000Y-90043000D03*
D24*
X93282205Y-99060705D03*
X113601500Y-78676500D03*
X94043500Y-97345500D03*
X113093500Y-78168500D03*
X93345000Y-96520000D03*
X112776000Y-77533500D03*
X113601500Y-76771500D03*
X91186000Y-93154500D03*
X139065000Y-96774000D03*
X129603500Y-96710500D03*
X105410000Y-72898000D03*
X127095000Y-82836000D03*
D26*
X128778000Y-71882000D03*
X115824000Y-88392000D03*
X131064000Y-58547000D03*
X117094000Y-86995000D03*
X127000000Y-56388000D03*
D24*
X114427000Y-73660000D03*
X115062000Y-73025000D03*
X107569000Y-72898000D03*
D25*
X164973000Y-92075000D03*
X169735500Y-96710500D03*
D24*
X107696000Y-73660000D03*
D25*
X171450000Y-90043000D03*
X106426000Y-70612000D03*
X100076000Y-68834000D03*
X109093000Y-88265000D03*
X102997000Y-88900000D03*
X108851000Y-84824000D03*
X97663000Y-88900000D03*
X111887000Y-83185000D03*
X100076000Y-88900000D03*
D26*
X144463000Y-47689000D03*
D24*
X93472000Y-75565000D03*
X131318000Y-79629000D03*
D26*
X144780000Y-53848000D03*
D24*
X102489000Y-83058000D03*
X110490000Y-82677000D03*
X128206500Y-79565500D03*
D26*
X144653000Y-56007000D03*
X149479000Y-56388000D03*
X153019000Y-48657000D03*
X130111500Y-82359500D03*
X105918000Y-84074000D03*
X130048000Y-86233000D03*
X149479000Y-53848000D03*
X167513000Y-63627000D03*
X155702000Y-65532000D03*
D24*
X121793000Y-48895000D03*
X135064500Y-46799500D03*
D26*
X157353000Y-64643000D03*
X170815000Y-68834000D03*
X157347761Y-63632239D03*
X169418000Y-68072000D03*
X166370000Y-66167000D03*
X157420600Y-66734400D03*
D25*
X114300000Y-90678000D03*
X167068500Y-92011500D03*
X164338000Y-99060000D03*
X169291000Y-99060000D03*
D24*
X129540000Y-69723000D03*
X137872000Y-55422000D03*
D26*
X144145000Y-49149000D03*
X102933500Y-52768500D03*
X125349000Y-54483000D03*
X109791500Y-46672500D03*
D28*
X151765000Y-114935000D02*
X151765000Y-110998000D01*
X151765000Y-110998000D02*
X151257000Y-110490000D01*
X151257000Y-110490000D02*
X147193000Y-110490000D01*
X144526000Y-107823000D02*
X144526000Y-106299000D01*
X147193000Y-110490000D02*
X144526000Y-107823000D01*
X116586000Y-114935000D02*
X116586000Y-111252000D01*
X97947000Y-108488000D02*
X97693000Y-108234000D01*
X108428000Y-108488000D02*
X97947000Y-108488000D01*
X113822000Y-108488000D02*
X108428000Y-108488000D01*
X108428000Y-108488000D02*
X105313000Y-108488000D01*
X114935000Y-109601000D02*
X113822000Y-108488000D01*
X116586000Y-111252000D02*
X114935000Y-109601000D01*
X128651000Y-109777002D02*
X128651000Y-108966000D01*
X128689999Y-109816001D02*
X128651000Y-109777002D01*
X115150001Y-109816001D02*
X128689999Y-109816001D01*
X114935000Y-109601000D02*
X115150001Y-109816001D01*
X156686000Y-98298000D02*
X156702000Y-98314000D01*
X148336000Y-98298000D02*
X156686000Y-98298000D01*
X125984000Y-66040000D02*
X122555000Y-62611000D01*
X125984000Y-79121000D02*
X125984000Y-66040000D01*
D29*
X127254000Y-88646000D02*
X127254000Y-88646000D01*
X126644990Y-81254010D02*
X126644990Y-79476010D01*
X125984000Y-87376000D02*
X125984000Y-81915000D01*
X125984000Y-81915000D02*
X126644990Y-81254010D01*
X125984000Y-87376000D02*
X127254000Y-88646000D01*
X126644990Y-79476010D02*
X128143000Y-77978000D01*
X128143000Y-77978000D02*
X128143000Y-75946000D01*
X128143000Y-75946000D02*
X128143000Y-75057000D01*
X101346000Y-59817000D02*
X101346000Y-60960000D01*
X101346000Y-75946000D02*
X101346000Y-60960000D01*
X97663000Y-56134000D02*
X97663000Y-51943000D01*
X97663000Y-56134000D02*
X101346000Y-59817000D01*
X97663000Y-51943000D02*
X94869000Y-49149000D01*
X187325000Y-89916000D02*
X187325000Y-88773000D01*
X185674000Y-87122000D02*
X183515000Y-87122000D01*
X187325000Y-88773000D02*
X185674000Y-87122000D01*
X173984999Y-92715001D02*
X183382999Y-92715001D01*
X185928000Y-90170000D02*
X185928000Y-89535000D01*
X183382999Y-92715001D02*
X185928000Y-90170000D01*
X102362000Y-79502000D02*
X102362000Y-69723000D01*
X102362000Y-69723000D02*
X105410000Y-66675000D01*
X105410000Y-66675000D02*
X105410000Y-66675000D01*
X105410000Y-66675000D02*
X105410000Y-65151000D01*
D28*
X170497500Y-86984984D02*
X153416000Y-69903484D01*
X170497500Y-94678500D02*
X170497500Y-86984984D01*
X135128000Y-51181000D02*
X135128000Y-51181000D01*
X102870000Y-100076000D02*
X102713000Y-100233000D01*
X110236000Y-100076000D02*
X102870000Y-100076000D01*
X102713000Y-100233000D02*
X66324000Y-100233000D01*
X64275000Y-98184000D02*
X64275000Y-96761000D01*
X66324000Y-100233000D02*
X64275000Y-98184000D01*
X119126000Y-108966000D02*
X110236000Y-100076000D01*
X120777000Y-108966000D02*
X119126000Y-108966000D01*
D30*
X151511000Y-65278000D02*
X153416000Y-65278000D01*
X147805002Y-61572002D02*
X151511000Y-65278000D01*
D28*
X153416000Y-69903484D02*
X153416000Y-65278000D01*
D30*
X147805002Y-60556002D02*
X147805002Y-61572002D01*
X147701000Y-60660004D02*
X147805002Y-60556002D01*
X144145000Y-51181000D02*
X136144000Y-51181000D01*
X144526000Y-51181000D02*
X144145000Y-51181000D01*
X147805002Y-54460002D02*
X144526000Y-51181000D01*
X147805002Y-60556002D02*
X147805002Y-54460002D01*
X136144000Y-51181000D02*
X135128000Y-51181000D01*
D29*
X94869000Y-75692000D02*
X94869000Y-67183000D01*
X94869000Y-67183000D02*
X91567000Y-63881000D01*
X91567000Y-63881000D02*
X91567000Y-43434000D01*
X91567000Y-43434000D02*
X91567000Y-43434000D01*
X92515999Y-63178999D02*
X92515999Y-50232001D01*
X92515999Y-50232001D02*
X95993000Y-46755000D01*
X98207999Y-68870999D02*
X92515999Y-63178999D01*
X98207999Y-80735001D02*
X98207999Y-68870999D01*
X99060000Y-81587002D02*
X98207999Y-80735001D01*
X95993000Y-46755000D02*
X95993000Y-43580000D01*
X99060000Y-81661000D02*
X99060000Y-81587002D01*
X105664000Y-73152000D02*
X105410000Y-72898000D01*
X105664000Y-73787000D02*
X105664000Y-73152000D01*
X105664000Y-73406000D02*
X105664000Y-73787000D01*
X127095000Y-79825998D02*
X129413000Y-77507998D01*
X127095000Y-82836000D02*
X127095000Y-79825998D01*
X129413000Y-77507998D02*
X129413000Y-76200000D01*
X129413000Y-76200000D02*
X129413000Y-75565000D01*
X129413000Y-75565000D02*
X129413000Y-72517000D01*
X129413000Y-72517000D02*
X128778000Y-71882000D01*
X128778000Y-71882000D02*
X128778000Y-71882000D01*
X115824000Y-88392000D02*
X117729000Y-88392000D01*
X121100010Y-79053400D02*
X121100010Y-58858990D01*
X117819001Y-82334409D02*
X121100010Y-79053400D01*
X117819001Y-88301999D02*
X117819001Y-82334409D01*
X117729000Y-88392000D02*
X117819001Y-88301999D01*
X121100010Y-58858990D02*
X121412000Y-58547000D01*
X121412000Y-58547000D02*
X127000000Y-58547000D01*
X127000000Y-58547000D02*
X131064000Y-58547000D01*
X131064000Y-58547000D02*
X131064000Y-58547000D01*
X127000000Y-56388000D02*
X127000000Y-56388000D01*
X117094000Y-82423000D02*
X117094000Y-86995000D01*
X120650000Y-78867000D02*
X117094000Y-82423000D01*
X122047000Y-56388000D02*
X120650000Y-57785000D01*
X120650000Y-57785000D02*
X120650000Y-78867000D01*
X127000000Y-56388000D02*
X122047000Y-56388000D01*
X114808000Y-61468000D02*
X114808000Y-58420000D01*
X116453490Y-63113490D02*
X114808000Y-61468000D01*
X114427000Y-72632980D02*
X116453490Y-70606490D01*
X116453490Y-70606490D02*
X116453490Y-63113490D01*
X114427000Y-73660000D02*
X114427000Y-72632980D01*
X117538500Y-58610500D02*
X117348000Y-58420000D01*
X117538500Y-70548500D02*
X117538500Y-58610500D01*
X115062000Y-73025000D02*
X117538500Y-70548500D01*
X165100000Y-92075000D02*
X164973000Y-92075000D01*
X169735500Y-96710500D02*
X165100000Y-92075000D01*
X106680000Y-86995000D02*
X108851000Y-84824000D01*
X105918000Y-87757000D02*
X106680000Y-86995000D01*
X98806000Y-87757000D02*
X105918000Y-87757000D01*
X97663000Y-88900000D02*
X98806000Y-87757000D01*
X100701001Y-88274999D02*
X100076000Y-88900000D01*
X106797001Y-88274999D02*
X100701001Y-88274999D01*
X111887000Y-83185000D02*
X106797001Y-88274999D01*
X144780000Y-53848000D02*
X144780000Y-53848000D01*
X145034000Y-53848000D02*
X144780000Y-53848000D01*
X131318000Y-79629000D02*
X137668000Y-79629000D01*
X140398500Y-76898500D02*
X140398500Y-67500500D01*
X137668000Y-79629000D02*
X140398500Y-76898500D01*
X145796000Y-62103000D02*
X145796000Y-54610000D01*
X140398500Y-67500500D02*
X145796000Y-62103000D01*
X145796000Y-54610000D02*
X145034000Y-53848000D01*
X144653000Y-56007000D02*
X144653000Y-56007000D01*
X139440490Y-77220100D02*
X139440490Y-76586510D01*
X137606591Y-79053999D02*
X139440490Y-77220100D01*
X128718001Y-79053999D02*
X137606591Y-79053999D01*
X128206500Y-79565500D02*
X128718001Y-79053999D01*
X139827000Y-76200000D02*
X139827000Y-66929000D01*
X139440490Y-76586510D02*
X139827000Y-76200000D01*
X144653000Y-62103000D02*
X144653000Y-57912000D01*
X139827000Y-66929000D02*
X144653000Y-62103000D01*
X144653000Y-57912000D02*
X144653000Y-56007000D01*
D28*
X155201001Y-50839001D02*
X153019000Y-48657000D01*
X193587001Y-50839001D02*
X155201001Y-50839001D01*
X194437000Y-51689000D02*
X193587001Y-50839001D01*
D29*
X167513000Y-63627000D02*
X160782000Y-63627000D01*
X160782000Y-63627000D02*
X158877000Y-65532000D01*
X158877000Y-65532000D02*
X158369000Y-65532000D01*
X158369000Y-65532000D02*
X157353000Y-65532000D01*
X158369000Y-65532000D02*
X155702000Y-65532000D01*
X165802600Y-66734400D02*
X166370000Y-66167000D01*
X157420600Y-66734400D02*
X165802600Y-66734400D01*
X164338000Y-99060000D02*
X169291000Y-99060000D01*
X89721999Y-74235001D02*
X89721999Y-73592999D01*
X88900000Y-72771000D02*
X88900000Y-62484000D01*
X89721999Y-73592999D02*
X88900000Y-72771000D01*
X88900000Y-62484000D02*
X88900000Y-49784000D01*
D28*
X102933500Y-52768500D02*
X108839000Y-46863000D01*
X108839000Y-46863000D02*
X108839000Y-31877000D01*
X125349000Y-54483000D02*
X125349000Y-43815000D01*
X125349000Y-43815000D02*
X116713000Y-35179000D01*
X111379000Y-34417000D02*
X112141000Y-35179000D01*
X111379000Y-31877000D02*
X111379000Y-34417000D01*
X116713000Y-35179000D02*
X112141000Y-35179000D01*
M02*
