M48
; DRILL file {KiCad (5.1.9)-1} date 02/19/21 10:56:44
; FORMAT={-:-/ absolute / inch / decimal}
; #@! TF.CreationDate,2021-02-19T10:56:44+04:00
; #@! TF.GenerationSoftware,Kicad,Pcbnew,(5.1.9)-1
; #@! TF.FileFunction,Plated,1,4,PTH
FMAT,2
INCH
T1C0.0118
T2C0.0157
T3C0.0197
T4C0.0236
T5C0.0299
T6C0.0350
T7C0.0354
T8C0.0394
T9C0.0433
T10C0.0512
T11C0.0591
T12C0.0630
T13C0.0669
T14C0.1260
%
G90
G05
T1
X2.4423Y-4.0477
X2.445Y-4.01
X2.4673Y-4.0477
X2.47Y-4.01
X2.4923Y-4.0477
X2.495Y-4.01
X2.5173Y-4.0477
X2.52Y-4.01
X2.5264Y-2.0641
X2.5264Y-2.1074
X2.5264Y-2.1586
X2.5264Y-2.2059
X2.5264Y-3.1791
X2.5264Y-3.2224
X2.5264Y-3.2736
X2.5264Y-3.3209
X2.5423Y-4.0477
X2.545Y-4.01
X2.5673Y-4.0477
X2.57Y-4.01
X2.5736Y-2.0641
X2.5736Y-2.1074
X2.5736Y-2.1586
X2.5736Y-2.2059
X2.5736Y-3.1791
X2.5736Y-3.2224
X2.5736Y-3.2736
X2.5736Y-3.3209
X2.5923Y-4.0477
X2.595Y-4.01
X2.6173Y-4.0477
X2.62Y-4.01
X2.6423Y-4.0477
X2.645Y-4.01
X2.6673Y-4.0477
X2.67Y-4.01
X2.795Y-3.98
X2.795Y-4.01
X2.795Y-4.095
X2.795Y-4.125
X2.795Y-4.155
X2.825Y-3.98
X2.825Y-4.01
X2.825Y-4.095
X2.825Y-4.125
X2.825Y-4.155
X2.935Y-3.985
X2.935Y-4.01
X2.96Y-3.985
X2.96Y-4.01
X2.96Y-4.1
X2.96Y-4.13
X2.96Y-4.16
X2.985Y-3.985
X2.985Y-4.01
X2.99Y-4.1
X2.99Y-4.13
X2.99Y-4.16
X3.5Y-1.965
X3.5348Y-3.0752
X3.555Y-3.17
X3.59Y-3.6675
X3.605Y-1.715
X3.6725Y-3.9
X3.675Y-3.8
X3.68Y-2.975
X3.7025Y-3.8325
X3.735Y-2.98
X3.7359Y-1.9391
X3.7793Y-1.7157
X3.9Y-3.215
X3.98Y-3.18
X4.0125Y-3.1575
X4.035Y-3.135
X4.035Y-3.27
X4.135Y-2.795
X4.15Y-2.565
X4.15Y-2.87
X4.1624Y-3.2126
X4.18Y-3.975
X4.187Y-2.87
X4.19Y-3.13
X4.195Y-3.195
X4.23Y-3.15
X4.235Y-2.87
X4.24Y-2.9
X4.2875Y-3.8825
X4.305Y-3.01
X4.35Y-3.255
X4.3855Y-2.68
X4.395Y-3.01
X4.425Y-2.605
X4.44Y-3.0525
X4.4525Y-3.0775
X4.455Y-3.185
X4.4575Y-3.2875
X4.4725Y-3.0225
X4.4725Y-3.0975
X4.505Y-2.9
X4.53Y-2.875
X4.5975Y-2.8575
X4.795Y-1.925
X4.8351Y-3.3801
X4.855Y-2.895
X4.8675Y-3.4325
X4.8745Y-2.6655
X5.0037Y-3.2613
X5.01Y-3.49
X5.0475Y-3.1325
X5.0574Y-3.6076
X5.08Y-3.685
X5.1Y-2.745
X5.1025Y-3.8075
X5.165Y-1.93
X5.17Y-3.135
X5.24Y-2.565
X5.29Y-2.125
X5.3175Y-1.8425
X5.428Y-2.182
X5.455Y-2.95
X5.475Y-3.81
X5.5843Y-4.0457
X5.64Y-3.685
X5.645Y-1.78
X5.84Y-3.87
X5.865Y-4.055
X5.99Y-3.8225
X6.105Y-3.515
X6.1694Y-3.8706
X6.2325Y-4.07
X6.3724Y-3.8276
X6.63Y-3.465
X6.7306Y-3.2694
X6.81Y-3.06
X6.815Y-3.515
X6.82Y-3.02
X6.82Y-3.09
X6.8776Y-3.1724
X6.895Y-3.05
X6.905Y-3.02
X7.0Y-3.715
X7.33Y-3.365
T2
X2.22Y-3.075
X2.235Y-2.56
X2.275Y-3.075
X2.33Y-3.075
X2.39Y-3.075
X2.45Y-3.075
X2.505Y-3.075
X2.63Y-2.565
X3.4124Y-1.9776
X3.4387Y-1.8787
X3.5Y-4.1
X3.5324Y-2.9226
X3.5627Y-1.8773
X3.6926Y-1.8774
X3.845Y-3.5
X3.895Y-3.0
X3.94Y-2.71
X3.94Y-3.5
X3.99Y-2.99
X4.055Y-3.5
X4.17Y-3.31
X4.19Y-2.78
X4.2Y-3.89
X4.2855Y-3.3395
X4.295Y-3.475
X4.405Y-3.275
X4.5Y-3.515
X4.5Y-3.57
X4.525Y-3.545
X4.56Y-3.48
X4.61Y-3.425
X4.62Y-3.065
X4.7925Y-3.1275
X4.825Y-2.465
X4.96Y-3.115
X5.0Y-2.22
X5.045Y-2.955
X5.07Y-2.83
X5.1059Y-4.0559
X5.12Y-3.395
X5.1225Y-3.2425
X5.125Y-2.965
X5.16Y-2.305
X5.32Y-2.015
X5.378Y-2.217
X5.62Y-1.165
X5.675Y-1.935
X5.6875Y-1.8775
X5.69Y-4.185
X5.695Y-2.205
X5.7Y-2.12
X5.73Y-1.395
X5.785Y-2.015
X5.855Y-1.395
X5.885Y-2.12
X5.885Y-2.22
X5.89Y-3.515
X5.985Y-2.84
X6.0244Y-1.9156
X6.0506Y-1.6794
X6.1948Y-2.5052
X6.195Y-2.545
X6.1977Y-2.6273
X6.47Y-3.9
X6.495Y-3.625
X6.55Y-2.605
X6.5775Y-3.6225
X6.595Y-2.505
X6.665Y-3.9
X6.67Y-2.68
X6.6825Y-3.8075
X6.7125Y-3.7275
X6.725Y-2.71
X6.75Y-3.545
X6.78Y-3.32
X6.78Y-3.57
X6.8498Y-3.6502
X6.85Y-2.355
X6.9777Y-2.2323
X6.9916Y-2.8666
X7.225Y-3.355
X7.225Y-3.43
X7.275Y-2.865
X7.31Y-3.73
X7.32Y-3.525
X7.33Y-3.315
X7.35Y-3.1
X7.3525Y-2.9175
X7.36Y-1.86
X7.375Y-3.54
X7.3875Y-3.1475
X7.53Y-1.595
X7.5575Y-1.4225
X7.6605Y-3.5895
T3
X3.765Y-3.945
X3.8462Y-4.2612
X4.0438Y-3.9462
X4.1462Y-4.2712
X4.34Y-3.94
X4.3762Y-4.2688
X4.4675Y-3.6925
X4.755Y-4.29
X5.065Y-4.29
X5.36Y-2.015
X5.9125Y-2.3475
X6.13Y-2.58
X6.68Y-3.215
X6.995Y-1.64
X7.4Y-1.14
T4
X2.5305Y-3.8095
X2.7355Y-3.8095
X3.2Y-3.165
X3.2154Y-3.7996
X3.2646Y-3.7996
X3.355Y-3.66
X3.36Y-1.795
X3.365Y-2.52
X3.405Y-3.66
X3.675Y-2.125
T5
X4.285Y-1.255
X4.385Y-1.255
X4.485Y-1.255
X4.585Y-1.255
T6
X6.776Y-4.4975
X6.876Y-4.4377
X7.174Y-4.4975
X7.274Y-4.4377
T7
X6.85Y-4.055
X6.9Y-3.955
X6.95Y-4.055
X7.0Y-3.955
X7.05Y-4.055
X7.1Y-3.955
X7.15Y-4.055
X7.2Y-3.955
T8
X3.25Y-2.585
X3.25Y-2.685
X3.25Y-2.785
X3.25Y-2.885
X3.25Y-2.985
X4.32Y-2.2
X4.32Y-2.3
X4.42Y-2.2
X4.42Y-2.3
X4.52Y-2.2
X4.52Y-2.3
X4.62Y-2.2
X4.62Y-2.3
X7.655Y-1.735
X7.655Y-1.835
X7.655Y-1.935
X7.655Y-2.035
X7.655Y-2.135
X7.655Y-2.235
T9
X3.615Y-4.525
X3.715Y-4.525
X3.815Y-4.525
X3.915Y-4.525
X4.015Y-4.525
X4.115Y-4.525
X4.215Y-4.525
X4.315Y-4.525
X4.59Y-4.525
X4.69Y-4.525
X4.79Y-4.525
X4.89Y-4.525
X4.99Y-4.525
X5.09Y-4.525
X5.19Y-4.525
X5.29Y-4.525
X5.575Y-4.525
X5.675Y-4.525
X5.775Y-4.525
X5.875Y-4.525
X5.975Y-4.525
X6.075Y-4.525
X6.175Y-4.525
X6.275Y-4.525
T10
X1.8Y-3.25
X1.8Y-3.45
T11
X6.365Y-1.15
X7.325Y-2.22
T12
X6.7189Y-4.1845
X7.3311Y-4.1845
T13
X6.265Y-1.05
X6.265Y-1.25
X6.465Y-1.05
X6.465Y-1.25
X7.225Y-2.12
X7.225Y-2.32
X7.425Y-2.12
X7.425Y-2.32
T14
X1.7Y-1.0
X1.7Y-4.65
X7.6Y-1.0
X7.6Y-4.66
T0
M30
