G04 #@! TF.GenerationSoftware,KiCad,Pcbnew,(5.1.9)-1*
G04 #@! TF.CreationDate,2021-02-18T16:49:06+04:00*
G04 #@! TF.ProjectId,saxli,7361786c-692e-46b6-9963-61645f706362,rev?*
G04 #@! TF.SameCoordinates,Original*
G04 #@! TF.FileFunction,Copper,L2,Inr*
G04 #@! TF.FilePolarity,Positive*
%FSLAX46Y46*%
G04 Gerber Fmt 4.6, Leading zero omitted, Abs format (unit mm)*
G04 Created by KiCad (PCBNEW (5.1.9)-1) date 2021-02-18 16:49:06*
%MOMM*%
%LPD*%
G01*
G04 APERTURE LIST*
G04 #@! TA.AperFunction,ComponentPad*
%ADD10C,1.303000*%
G04 #@! TD*
G04 #@! TA.AperFunction,ComponentPad*
%ADD11C,2.250000*%
G04 #@! TD*
G04 #@! TA.AperFunction,ComponentPad*
%ADD12C,2.050000*%
G04 #@! TD*
G04 #@! TA.AperFunction,ComponentPad*
%ADD13O,1.700000X1.700000*%
G04 #@! TD*
G04 #@! TA.AperFunction,ComponentPad*
%ADD14R,1.700000X1.700000*%
G04 #@! TD*
G04 #@! TA.AperFunction,ComponentPad*
%ADD15R,2.200000X2.200000*%
G04 #@! TD*
G04 #@! TA.AperFunction,ComponentPad*
%ADD16C,2.200000*%
G04 #@! TD*
G04 #@! TA.AperFunction,ComponentPad*
%ADD17C,0.600000*%
G04 #@! TD*
G04 #@! TA.AperFunction,ComponentPad*
%ADD18C,2.600000*%
G04 #@! TD*
G04 #@! TA.AperFunction,ComponentPad*
%ADD19C,1.890000*%
G04 #@! TD*
G04 #@! TA.AperFunction,ComponentPad*
%ADD20C,1.900000*%
G04 #@! TD*
G04 #@! TA.AperFunction,ComponentPad*
%ADD21R,1.900000X1.900000*%
G04 #@! TD*
G04 #@! TA.AperFunction,ComponentPad*
%ADD22R,2.600000X2.600000*%
G04 #@! TD*
G04 #@! TA.AperFunction,ComponentPad*
%ADD23C,6.400000*%
G04 #@! TD*
G04 #@! TA.AperFunction,ViaPad*
%ADD24C,0.500000*%
G04 #@! TD*
G04 #@! TA.AperFunction,ViaPad*
%ADD25C,0.600000*%
G04 #@! TD*
G04 #@! TA.AperFunction,ViaPad*
%ADD26C,0.800000*%
G04 #@! TD*
G04 #@! TA.AperFunction,ViaPad*
%ADD27C,1.000000*%
G04 #@! TD*
G04 #@! TA.AperFunction,Conductor*
%ADD28C,0.250000*%
G04 #@! TD*
G04 #@! TA.AperFunction,Conductor*
%ADD29C,0.500000*%
G04 #@! TD*
G04 APERTURE END LIST*
D10*
X116459000Y-31877000D03*
X113919000Y-31877000D03*
X111379000Y-31877000D03*
X108839000Y-31877000D03*
D11*
X164211000Y-31750000D03*
X159131000Y-31750000D03*
X159131000Y-26670000D03*
X164211000Y-26670000D03*
D12*
X161671000Y-29210000D03*
D11*
X183515000Y-58928000D03*
X183515000Y-53848000D03*
X188595000Y-53848000D03*
X188595000Y-58928000D03*
D12*
X186055000Y-56388000D03*
D13*
X194437000Y-44069000D03*
X194437000Y-46609000D03*
X194437000Y-49149000D03*
X194437000Y-51689000D03*
X194437000Y-54229000D03*
D14*
X194437000Y-56769000D03*
D15*
X141605000Y-114935000D03*
D16*
X144145000Y-114935000D03*
X146685000Y-114935000D03*
X149225000Y-114935000D03*
X151765000Y-114935000D03*
X154305000Y-114935000D03*
X156845000Y-114935000D03*
X159385000Y-114935000D03*
D15*
X91821000Y-114935000D03*
D16*
X94361000Y-114935000D03*
X96901000Y-114935000D03*
X99441000Y-114935000D03*
X101981000Y-114935000D03*
X104521000Y-114935000D03*
X107061000Y-114935000D03*
X109601000Y-114935000D03*
D15*
X116586000Y-114935000D03*
D16*
X119126000Y-114935000D03*
X121666000Y-114935000D03*
X124206000Y-114935000D03*
X126746000Y-114935000D03*
X129286000Y-114935000D03*
X131826000Y-114935000D03*
X134366000Y-114935000D03*
D17*
X64170000Y-80750000D03*
X64170000Y-81850000D03*
X65370000Y-81850000D03*
X65370000Y-80750000D03*
X64170000Y-84350000D03*
X64170000Y-83150000D03*
X65370000Y-83150000D03*
X65370000Y-84350000D03*
X64170000Y-52429000D03*
X64170000Y-53529000D03*
X65370000Y-53529000D03*
X65370000Y-52429000D03*
X64170000Y-56029000D03*
X64170000Y-54829000D03*
X65370000Y-54829000D03*
X65370000Y-56029000D03*
D18*
X186210000Y-106287000D03*
X170660000Y-106287000D03*
D19*
X172110000Y-114237000D03*
X174650000Y-112717000D03*
X182220000Y-114237000D03*
X184760000Y-112717000D03*
D20*
X182880000Y-100457000D03*
X181610000Y-102997000D03*
X180340000Y-100457000D03*
X179070000Y-102997000D03*
X177800000Y-100457000D03*
X176530000Y-102997000D03*
X175260000Y-100457000D03*
D21*
X173990000Y-102997000D03*
D14*
X109728000Y-58420000D03*
D13*
X109728000Y-55880000D03*
X112268000Y-58420000D03*
X112268000Y-55880000D03*
X114808000Y-58420000D03*
X114808000Y-55880000D03*
X117348000Y-58420000D03*
X117348000Y-55880000D03*
X82550000Y-75819000D03*
X82550000Y-73279000D03*
X82550000Y-70739000D03*
X82550000Y-68199000D03*
D14*
X82550000Y-65659000D03*
D18*
X45720000Y-82550000D03*
D22*
X45720000Y-87630000D03*
D23*
X193040000Y-25400000D03*
X193040000Y-118364000D03*
X43180000Y-118110000D03*
X43180000Y-25400000D03*
D24*
X74549000Y-101219000D03*
X74549000Y-101854000D03*
X75819000Y-101219000D03*
X75184000Y-101219000D03*
X75819000Y-101854000D03*
X75184000Y-101854000D03*
X75946000Y-104140000D03*
X75184000Y-104140000D03*
X75946000Y-104902000D03*
X75184000Y-104902000D03*
X75184000Y-105664000D03*
X75946000Y-105664000D03*
X71755000Y-101854000D03*
X71755000Y-101092000D03*
X70993000Y-101092000D03*
X70993000Y-101854000D03*
X71755000Y-104013000D03*
X71755000Y-104775000D03*
X71755000Y-105537000D03*
X70993000Y-104013000D03*
X70993000Y-104775000D03*
X70993000Y-105537000D03*
X122811500Y-85854500D03*
X105029000Y-70993000D03*
X111392000Y-68072000D03*
X123812000Y-67704000D03*
D25*
X130175000Y-75311000D03*
D24*
X148971000Y-102997000D03*
X152146000Y-97091500D03*
X161859000Y-97221000D03*
X106172000Y-100965000D03*
X108902500Y-98615500D03*
D26*
X88900000Y-104140000D03*
D24*
X168402000Y-88011000D03*
X101092000Y-80772000D03*
X141841000Y-102761000D03*
X133096000Y-65151000D03*
D27*
X85344000Y-45593000D03*
D24*
X123317000Y-73533000D03*
X90297000Y-80518000D03*
X128458000Y-91633000D03*
D26*
X173990000Y-59817000D03*
X177785000Y-56657000D03*
X186943000Y-47245000D03*
X191960000Y-36132000D03*
X142748000Y-29591000D03*
X153685000Y-42657000D03*
X121729500Y-79438500D03*
D25*
X144526000Y-106299000D03*
X129690500Y-103020500D03*
D26*
X177672000Y-41657000D03*
X150178000Y-59626000D03*
X113474000Y-93790000D03*
D25*
X93793000Y-47685000D03*
X90493000Y-47683000D03*
X87343000Y-47719000D03*
X106680000Y-98806000D03*
D26*
X186182000Y-84201000D03*
X194577000Y-91173000D03*
X172212000Y-90678000D03*
X172212000Y-84328000D03*
X177586000Y-72811000D03*
X187642500Y-79946500D03*
D24*
X62103000Y-101854000D03*
X62738000Y-101854000D03*
X63373000Y-101854000D03*
X64008000Y-101854000D03*
X64643000Y-101854000D03*
X65278000Y-101854000D03*
X65913000Y-101854000D03*
X66548000Y-101854000D03*
X67183000Y-101854000D03*
X67818000Y-101854000D03*
X62035000Y-102811000D03*
X62670000Y-102811000D03*
X63305000Y-102811000D03*
X63940000Y-102811000D03*
X64575000Y-102811000D03*
X65210000Y-102811000D03*
X65845000Y-102811000D03*
X66480000Y-102811000D03*
X67115000Y-102811000D03*
X67750000Y-102811000D03*
X112395000Y-66167000D03*
X143383000Y-45212000D03*
D26*
X63627000Y-78105000D03*
X62230000Y-78105000D03*
X60706000Y-78105000D03*
X59182000Y-78105000D03*
X57785000Y-78105000D03*
X56388000Y-78105000D03*
X152019000Y-72136000D03*
X66802000Y-65151000D03*
X56769000Y-65024000D03*
X146939000Y-51181000D03*
D24*
X138557000Y-74930000D03*
D26*
X145542000Y-35433000D03*
X148717000Y-35433000D03*
D25*
X191262000Y-40513000D03*
D26*
X187960000Y-28956000D03*
D27*
X81280000Y-80391000D03*
X82922000Y-96511000D03*
X81670000Y-96511000D03*
D26*
X105313000Y-108488000D03*
X111155000Y-108428000D03*
X97693000Y-108234000D03*
X128651000Y-108966000D03*
D24*
X156702000Y-98314000D03*
X148336000Y-98298000D03*
X143256000Y-93599000D03*
X129032000Y-93599000D03*
X158305500Y-103378000D03*
X123634500Y-87185500D03*
X170958000Y-83042000D03*
D26*
X98933000Y-76200000D03*
X125984000Y-79121000D03*
X122555000Y-62611000D03*
D24*
X113157000Y-80899000D03*
X109347000Y-76454000D03*
X105725999Y-81599001D03*
X89784499Y-78109501D03*
D27*
X85217000Y-92964000D03*
X86487000Y-92964000D03*
D26*
X86673999Y-50232001D03*
D27*
X85471000Y-64008000D03*
D26*
X169672000Y-81661000D03*
X186690000Y-78740000D03*
D24*
X127254000Y-88646000D03*
D26*
X128143000Y-75057000D03*
D24*
X106351000Y-72898000D03*
X177800000Y-94361000D03*
X173101000Y-89281000D03*
X173228000Y-76708000D03*
X106426000Y-79502000D03*
D26*
X101346000Y-75946000D03*
D24*
X94893000Y-49252000D03*
X172974000Y-77724000D03*
X107442000Y-80010000D03*
D26*
X136602000Y-56311000D03*
D24*
X134366000Y-53975000D03*
D26*
X184785000Y-72771000D03*
X186753500Y-74104500D03*
X183515000Y-85217000D03*
X185674000Y-94742000D03*
X183515000Y-87122000D03*
X187325000Y-89916000D03*
X185928000Y-89535000D03*
X173984999Y-92715001D03*
D24*
X186182000Y-85471000D03*
X101917500Y-80200500D03*
X174692001Y-80577999D03*
X106553000Y-81153000D03*
X102489000Y-79629000D03*
X105410000Y-65151000D03*
D27*
X64275000Y-96761000D03*
D24*
X131191000Y-49022000D03*
D25*
X170497500Y-94678500D03*
X135128000Y-51181000D03*
D26*
X110236000Y-100076000D03*
X102713000Y-100233000D03*
X95631000Y-100203000D03*
X120777000Y-108966000D03*
D27*
X93345000Y-53975000D03*
X69482000Y-96761000D03*
D26*
X136144000Y-51181000D03*
D24*
X173228000Y-78486000D03*
X113220500Y-83502500D03*
X175133000Y-77470000D03*
X111633000Y-76454000D03*
X175387000Y-76708000D03*
X116776500Y-72580500D03*
X94869000Y-75692000D03*
X91567000Y-43561000D03*
X99060000Y-81661000D03*
X95993000Y-43580000D03*
D25*
X117348000Y-77851000D03*
X89721999Y-74235001D03*
D24*
X88900000Y-49911000D03*
D25*
X114300000Y-89281000D03*
X149606000Y-89281000D03*
D24*
X155067000Y-89281000D03*
D25*
X114935000Y-90043000D03*
D24*
X93282205Y-99060705D03*
X113601500Y-78676500D03*
X94043500Y-97345500D03*
X113093500Y-78168500D03*
X93345000Y-96520000D03*
X112776000Y-77533500D03*
X113601500Y-76771500D03*
X91186000Y-93154500D03*
X139065000Y-96774000D03*
X129603500Y-96710500D03*
X105410000Y-72898000D03*
X127095000Y-82836000D03*
D26*
X128778000Y-71882000D03*
X115824000Y-88392000D03*
X131064000Y-58547000D03*
X117094000Y-86995000D03*
X127000000Y-56388000D03*
D24*
X114427000Y-73660000D03*
X115062000Y-73025000D03*
X107569000Y-72898000D03*
D25*
X164973000Y-92075000D03*
X169735500Y-96710500D03*
D24*
X107696000Y-73660000D03*
D25*
X171450000Y-90043000D03*
X106426000Y-70612000D03*
X100076000Y-68834000D03*
X109093000Y-88265000D03*
X102997000Y-88900000D03*
X108851000Y-84824000D03*
X97663000Y-88900000D03*
X111887000Y-83185000D03*
X100076000Y-88900000D03*
D26*
X144463000Y-47689000D03*
D24*
X93472000Y-75565000D03*
X131318000Y-79629000D03*
D26*
X144780000Y-53848000D03*
D24*
X102489000Y-83058000D03*
X110490000Y-82677000D03*
X128206500Y-79565500D03*
D26*
X144653000Y-56007000D03*
X149479000Y-56388000D03*
X153019000Y-48657000D03*
X130111500Y-82359500D03*
X105918000Y-84074000D03*
X130048000Y-86233000D03*
X149479000Y-53848000D03*
X167513000Y-63627000D03*
X155702000Y-65532000D03*
D24*
X121793000Y-48895000D03*
X135064500Y-46799500D03*
D26*
X157353000Y-64643000D03*
X170815000Y-68834000D03*
X157347761Y-63632239D03*
X169418000Y-68072000D03*
X166370000Y-66167000D03*
X157420600Y-66734400D03*
D25*
X114300000Y-90678000D03*
X167068500Y-92011500D03*
X164338000Y-99060000D03*
X169291000Y-99060000D03*
D24*
X129540000Y-69723000D03*
X137872000Y-55422000D03*
D26*
X144145000Y-49149000D03*
D28*
X148971000Y-102997000D02*
X148971000Y-101854000D01*
X148971000Y-101854000D02*
X150558500Y-100266500D01*
X150558500Y-100266500D02*
X151193500Y-100266500D01*
X152146000Y-99314000D02*
X152146000Y-97091500D01*
X151193500Y-100266500D02*
X152146000Y-99314000D01*
X87377000Y-47685000D02*
X87343000Y-47719000D01*
X93793000Y-47685000D02*
X87377000Y-47685000D01*
X138684000Y-75057000D02*
X138557000Y-74930000D01*
D29*
X143256000Y-93599000D02*
X129032000Y-93599000D01*
X129032000Y-93599000D02*
X129032000Y-93599000D01*
X85090000Y-51816000D02*
X86673999Y-50232001D01*
X85471000Y-64008000D02*
X85471000Y-63246000D01*
X85090000Y-62865000D02*
X85090000Y-58039000D01*
X85471000Y-63246000D02*
X85090000Y-62865000D01*
X85090000Y-58039000D02*
X85090000Y-51816000D01*
X85090000Y-59055000D02*
X85090000Y-58039000D01*
D28*
X128143000Y-75057000D02*
X110998000Y-75057000D01*
X110998000Y-75057000D02*
X108077000Y-72136000D01*
X108077000Y-72136000D02*
X106680000Y-72136000D01*
X106351000Y-72465000D02*
X106680000Y-72136000D01*
X106351000Y-72898000D02*
X106351000Y-72465000D01*
X177800000Y-93980000D02*
X173101000Y-89281000D01*
X177800000Y-94361000D02*
X177800000Y-93980000D01*
X173228000Y-76708000D02*
X117475000Y-76708000D01*
X114173000Y-79375000D02*
X106553000Y-79375000D01*
X116840000Y-76708000D02*
X114173000Y-79375000D01*
X106553000Y-79375000D02*
X106426000Y-79502000D01*
X106426000Y-79502000D02*
X106426000Y-79502000D01*
X117475000Y-76708000D02*
X116840000Y-76708000D01*
X169164000Y-77724000D02*
X172974000Y-77724000D01*
X167259000Y-79629000D02*
X169164000Y-77724000D01*
X153729999Y-77910999D02*
X155448000Y-79629000D01*
X119193001Y-77910999D02*
X153729999Y-77910999D01*
X155448000Y-79629000D02*
X167259000Y-79629000D01*
X115951000Y-80010000D02*
X115951000Y-79629000D01*
X107442000Y-80010000D02*
X115951000Y-80010000D01*
X116776500Y-78803500D02*
X118300500Y-78803500D01*
X115951000Y-79629000D02*
X116776500Y-78803500D01*
X118300500Y-78803500D02*
X119193001Y-77910999D01*
X115729001Y-57055001D02*
X120240999Y-57055001D01*
X114808000Y-56134000D02*
X115729001Y-57055001D01*
X114808000Y-55880000D02*
X114808000Y-56134000D01*
X130595997Y-57942001D02*
X121127999Y-57942001D01*
X132226998Y-56311000D02*
X130595997Y-57942001D01*
X136602000Y-56311000D02*
X132226998Y-56311000D01*
X120240999Y-57055001D02*
X121127999Y-57942001D01*
D29*
X134116001Y-53725001D02*
X112771999Y-53725001D01*
X134366000Y-53975000D02*
X134116001Y-53725001D01*
X112268000Y-54229000D02*
X112268000Y-55880000D01*
X112771999Y-53725001D02*
X112268000Y-54229000D01*
D28*
X175387000Y-115697000D02*
X173570000Y-115697000D01*
X176657000Y-114427000D02*
X175387000Y-115697000D01*
X176657000Y-108966000D02*
X176657000Y-114427000D01*
X175514000Y-96012000D02*
X171577000Y-99949000D01*
X173570000Y-115697000D02*
X172110000Y-114237000D01*
X178562000Y-96012000D02*
X175514000Y-96012000D01*
X171577000Y-103886000D02*
X176657000Y-108966000D01*
X182245000Y-92329000D02*
X178562000Y-96012000D01*
X171577000Y-99949000D02*
X171577000Y-103886000D01*
X182245000Y-75311000D02*
X182245000Y-92329000D01*
X184785000Y-72771000D02*
X182245000Y-75311000D01*
X184971000Y-112717000D02*
X184760000Y-112717000D01*
X191389000Y-106299000D02*
X184971000Y-112717000D01*
X191389000Y-106299000D02*
X191389000Y-78740000D01*
X191389000Y-78740000D02*
X186753500Y-74104500D01*
X186753500Y-74104500D02*
X186690000Y-74041000D01*
X185202999Y-94270999D02*
X185202999Y-86904999D01*
X185674000Y-94742000D02*
X185202999Y-94270999D01*
X185202999Y-86904999D02*
X183515000Y-85217000D01*
X185928000Y-85725000D02*
X186182000Y-85471000D01*
X185928000Y-89535000D02*
X185928000Y-85725000D01*
X170376009Y-84893991D02*
X110801991Y-84893991D01*
X174692001Y-80577999D02*
X170376009Y-84893991D01*
X107950000Y-82042000D02*
X107696000Y-82042000D01*
X110801991Y-84893991D02*
X107950000Y-82042000D01*
X107696000Y-82042000D02*
X106807000Y-81153000D01*
X106807000Y-81153000D02*
X106553000Y-81153000D01*
X106553000Y-81153000D02*
X106426000Y-81153000D01*
X113220500Y-83502500D02*
X113157000Y-83566000D01*
X113220500Y-83502500D02*
X166052500Y-83502500D01*
X171069000Y-78486000D02*
X173228000Y-78486000D01*
X166052500Y-83502500D02*
X171069000Y-78486000D01*
X175133000Y-77470000D02*
X175133000Y-77470000D01*
X173799500Y-76136500D02*
X175133000Y-77470000D01*
X173736000Y-76073000D02*
X173799500Y-76136500D01*
X112014000Y-76073000D02*
X173736000Y-76073000D01*
X111633000Y-76454000D02*
X112014000Y-76073000D01*
X175387000Y-76708000D02*
X175387000Y-76708000D01*
X142240000Y-72771000D02*
X143129000Y-73660000D01*
X172339000Y-73660000D02*
X175387000Y-76708000D01*
X143129000Y-73660000D02*
X172339000Y-73660000D01*
X116967000Y-72771000D02*
X116776500Y-72580500D01*
X118745000Y-72771000D02*
X116967000Y-72771000D01*
X118745000Y-72771000D02*
X142240000Y-72771000D01*
X114300000Y-89281000D02*
X148844000Y-89281000D01*
X147828000Y-89281000D02*
X149606000Y-89281000D01*
X149606000Y-89281000D02*
X149733000Y-89281000D01*
X154305000Y-90043000D02*
X154368500Y-89979500D01*
X114935000Y-90043000D02*
X154305000Y-90043000D01*
X154368500Y-89979500D02*
X155067000Y-89281000D01*
X93282205Y-99060705D02*
X93219410Y-99123500D01*
X113534499Y-78743501D02*
X113601500Y-78676500D01*
X101088499Y-78743501D02*
X113534499Y-78743501D01*
X94678500Y-85153500D02*
X101088499Y-78743501D01*
X94678500Y-97664410D02*
X94678500Y-85153500D01*
X93282205Y-99060705D02*
X94678500Y-97664410D01*
X105727500Y-78168500D02*
X113093500Y-78168500D01*
X100647500Y-78168500D02*
X105727500Y-78168500D01*
X94043500Y-84772500D02*
X100647500Y-78168500D01*
X94043500Y-97345500D02*
X94043500Y-84772500D01*
X112776000Y-77522000D02*
X112776000Y-77533500D01*
X93345000Y-96520000D02*
X93345000Y-96583500D01*
X93345000Y-96520000D02*
X93345000Y-96520000D01*
X112776000Y-77533500D02*
X112776000Y-77533500D01*
X107886500Y-77533500D02*
X112776000Y-77533500D01*
X99886910Y-77533500D02*
X107886500Y-77533500D01*
X99441000Y-78105000D02*
X99441000Y-77979410D01*
X93345000Y-84201000D02*
X99441000Y-78105000D01*
X99441000Y-77979410D02*
X99886910Y-77533500D01*
X93345000Y-96520000D02*
X93345000Y-84201000D01*
X91186000Y-93154500D02*
X91186000Y-93154500D01*
X112966500Y-76771500D02*
X112675498Y-76771500D01*
X113601500Y-76771500D02*
X112966500Y-76771500D01*
X112198990Y-76771500D02*
X113601500Y-76771500D01*
X111887000Y-77083490D02*
X112198990Y-76771500D01*
X99700510Y-77083490D02*
X111887000Y-77083490D01*
X91186000Y-85598000D02*
X99700510Y-77083490D01*
X91186000Y-93154500D02*
X91186000Y-85598000D01*
X139001500Y-96710500D02*
X139065000Y-96774000D01*
X129603500Y-96710500D02*
X139001500Y-96710500D01*
X128464001Y-71568001D02*
X128778000Y-71882000D01*
X105977999Y-71568001D02*
X128464001Y-71568001D01*
X105410000Y-72136000D02*
X105977999Y-71568001D01*
X105410000Y-72898000D02*
X105410000Y-72136000D01*
X168021000Y-110363000D02*
X168656000Y-109728000D01*
X168021000Y-110363000D02*
X168021000Y-98425000D01*
X168021000Y-98425000D02*
X169735500Y-96710500D01*
X169735500Y-96710500D02*
X169799000Y-96647000D01*
X106495010Y-73971990D02*
X107569000Y-72898000D01*
X98621010Y-73971990D02*
X106495010Y-73971990D01*
X86861991Y-101547597D02*
X88489794Y-99919794D01*
X86861991Y-109215401D02*
X86861991Y-101547597D01*
X88009590Y-110363000D02*
X86861991Y-109215401D01*
X88489794Y-84103206D02*
X98621010Y-73971990D01*
X88489794Y-99919794D02*
X88489794Y-84103206D01*
X168021000Y-110363000D02*
X88009590Y-110363000D01*
X171450000Y-90043000D02*
X171450000Y-90043000D01*
X87312001Y-101790999D02*
X88939804Y-100163196D01*
X87312001Y-109029001D02*
X87312001Y-101790999D01*
X106934000Y-74422000D02*
X107696000Y-73660000D01*
X88195990Y-109912990D02*
X87312001Y-109029001D01*
X98807410Y-74422000D02*
X106934000Y-74422000D01*
X88939804Y-100163196D02*
X88939804Y-84289606D01*
X165804010Y-109912990D02*
X88195990Y-109912990D01*
X166179999Y-109537001D02*
X165804010Y-109912990D01*
X166179999Y-109029001D02*
X166179999Y-109537001D01*
X88939804Y-84289606D02*
X98807410Y-74422000D01*
X166941500Y-108267500D02*
X166179999Y-109029001D01*
X166941500Y-94551500D02*
X166941500Y-108267500D01*
X171450000Y-90043000D02*
X166941500Y-94551500D01*
X104648000Y-68834000D02*
X105727500Y-69913500D01*
X100076000Y-68834000D02*
X104648000Y-68834000D01*
X106426000Y-70612000D02*
X105727500Y-69913500D01*
X108458000Y-88900000D02*
X109093000Y-88265000D01*
X102997000Y-88900000D02*
X108458000Y-88900000D01*
X138512998Y-47689000D02*
X144463000Y-47689000D01*
X135645999Y-50555999D02*
X138512998Y-47689000D01*
X109464001Y-50555999D02*
X135645999Y-50555999D01*
X103886000Y-56134000D02*
X109464001Y-50555999D01*
X103886000Y-63156998D02*
X103886000Y-56134000D01*
X96602499Y-70440499D02*
X103886000Y-63156998D01*
X95713499Y-71329499D02*
X96602499Y-70440499D01*
X95205499Y-71837499D02*
X96602499Y-70440499D01*
X93472000Y-73570998D02*
X94570499Y-72472499D01*
X93472000Y-75565000D02*
X93472000Y-73570998D01*
X94570499Y-72472499D02*
X95205499Y-71837499D01*
D29*
X196088000Y-65151000D02*
X164846000Y-65151000D01*
X197485000Y-63754000D02*
X196088000Y-65151000D01*
X197485000Y-49530000D02*
X197485000Y-63754000D01*
X164846000Y-65151000D02*
X161798000Y-62103000D01*
X197104000Y-49149000D02*
X197485000Y-49530000D01*
X194437000Y-49149000D02*
X197104000Y-49149000D01*
X149479000Y-56388000D02*
X155194000Y-62103000D01*
X161798000Y-62103000D02*
X155194000Y-62103000D01*
D28*
X130048000Y-86233000D02*
X130048000Y-86233000D01*
X107442000Y-85598000D02*
X105918000Y-84074000D01*
X121735501Y-86429501D02*
X120904000Y-85598000D01*
X120904000Y-85598000D02*
X107442000Y-85598000D01*
X129851499Y-86429501D02*
X121735501Y-86429501D01*
X130048000Y-86233000D02*
X129851499Y-86429501D01*
D29*
X192278000Y-48768000D02*
X194437000Y-46609000D01*
X192278000Y-63119000D02*
X192278000Y-48768000D01*
X190946010Y-64450990D02*
X192278000Y-63119000D01*
X177861990Y-64450990D02*
X190946010Y-64450990D01*
X174498000Y-61087000D02*
X177861990Y-64450990D01*
X174498000Y-60960000D02*
X174498000Y-61087000D01*
X157480000Y-60960000D02*
X174498000Y-60960000D01*
X150368000Y-53848000D02*
X157480000Y-60960000D01*
X149479000Y-53848000D02*
X150368000Y-53848000D01*
X121793000Y-48895000D02*
X129032000Y-48895000D01*
X131127500Y-46799500D02*
X135064500Y-46799500D01*
X129032000Y-48895000D02*
X131127500Y-46799500D01*
D28*
X157353000Y-64643000D02*
X160274000Y-64643000D01*
X164465000Y-68834000D02*
X170815000Y-68834000D01*
X160274000Y-64643000D02*
X164465000Y-68834000D01*
X157347761Y-63632239D02*
X161168239Y-63632239D01*
X165608000Y-68072000D02*
X169418000Y-68072000D01*
X161168239Y-63632239D02*
X165608000Y-68072000D01*
X165943001Y-90886001D02*
X167068500Y-92011500D01*
X167068500Y-92011500D02*
X167132000Y-92075000D01*
X114300000Y-90678000D02*
X114681000Y-91059000D01*
X116332000Y-91059000D02*
X116504999Y-90886001D01*
X114681000Y-91059000D02*
X116332000Y-91059000D01*
X116504999Y-90886001D02*
X165943001Y-90886001D01*
X137872000Y-55422000D02*
X124764000Y-55422000D01*
D29*
X117806000Y-55422000D02*
X117348000Y-55880000D01*
X137872000Y-55422000D02*
X117806000Y-55422000D01*
D28*
X137872000Y-55422000D02*
X140031000Y-55422000D01*
X140031000Y-55422000D02*
X142367000Y-53086000D01*
X142367000Y-50927000D02*
X144145000Y-49149000D01*
X142367000Y-53086000D02*
X142367000Y-50927000D01*
M02*
